<svg width="327" height="170" version="1.1" xmlns="http://www.w3.org/2000/svg" desc="Created with https://tools.webdevpuneet.com/image-to-svg-converter/"><path fill="rgb(2,18,15)" stroke="rgb(2,18,15)" stroke-width="1" opacity="0.03529411764705882" d="M 0 0 L 326.5 0 L 327 0.5 L 327 36.5 L 326 36.5 Q 324.1 24.9 315.5 20 L 301.5 14 L 287.5 14 L 286.5 13 L 247.5 12 L 246.5 11 L 188.5 9 L 187.5 8 L 149.5 7 L 148.5 6 L 129.5 6 L 128.5 5 L 90.5 4 L 89.5 3 L 70.5 3 L 69.5 2 L 51.5 2 L 50.5 1 L 22.5 1 Q 12.1 4.1 6 11.5 L 0.5 23 L 0 0 Z "></path><path fill="rgb(2,18,15)" stroke="rgb(2,18,15)" stroke-width="1" opacity="0.03529411764705882" d="M 0.5 147 Q 2.9 158.6 11.5 164 Q 16.6 168.4 25 169.5 L 0 170 L 0.5 147 Z "></path><path fill="rgb(2,18,15)" stroke="rgb(2,18,15)" stroke-width="1" opacity="0.03529411764705882" d="M 326.5 147 L 327 170 L 302 169.5 Q 315.6 167.1 322 157.5 L 326.5 147 Z "></path><path fill="rgb(21,171,143)" stroke="rgb(21,171,143)" stroke-width="1" opacity="0.996078431372549" d="M 22.5 1 L 28 1.5 Q 12.7 3.2 6 13.5 Q 1 19 0.5 29 L 0 23.5 Q 3.1 13.1 10.5 7 L 22.5 1 Z "></path><path fill="rgb(21,171,143)" stroke="rgb(21,171,143)" stroke-width="1" opacity="0.996078431372549" d="M 33.5 1 L 51 1.5 L 33.5 2 L 33.5 1 Z "></path><path fill="rgb(21,171,143)" stroke="rgb(21,171,143)" stroke-width="1" opacity="0.996078431372549" d="M 53.5 2 L 70 2.5 L 53.5 3 L 53.5 2 Z "></path><path fill="rgb(21,171,143)" stroke="rgb(21,171,143)" stroke-width="1" opacity="0.996078431372549" d="M 72.5 3 L 90 3.5 L 72.5 4 L 72.5 3 Z "></path><path fill="rgb(21,171,143)" stroke="rgb(21,171,143)" stroke-width="1" opacity="0.996078431372549" d="M 92.5 4 L 110 4.5 L 92.5 5 L 92.5 4 Z "></path><path fill="rgb(21,171,143)" stroke="rgb(21,171,143)" stroke-width="1" opacity="0.996078431372549" d="M 112.5 5 L 129 5.5 L 112.5 6 L 112.5 5 Z "></path><path fill="rgb(21,171,143)" stroke="rgb(21,171,143)" stroke-width="1" opacity="0.996078431372549" d="M 131.5 6 L 149 6.5 L 131.5 7 L 131.5 6 Z "></path><path fill="rgb(21,171,143)" stroke="rgb(21,171,143)" stroke-width="1" opacity="0.996078431372549" d="M 151.5 7 L 169 7.5 L 151.5 8 L 151.5 7 Z "></path><path fill="rgb(21,171,143)" stroke="rgb(21,171,143)" stroke-width="1" opacity="0.996078431372549" d="M 171.5 8 L 188 8.5 L 171.5 9 L 171.5 8 Z "></path><path fill="rgb(21,171,143)" stroke="rgb(21,171,143)" stroke-width="1" opacity="0.996078431372549" d="M 190.5 9 L 208 9.5 L 190.5 10 L 190.5 9 Z "></path><path fill="rgb(21,171,143)" stroke="rgb(21,171,143)" stroke-width="1" opacity="0.996078431372549" d="M 210.5 10 L 228 10.5 L 210.5 11 L 210.5 10 Z "></path><path fill="rgb(21,171,143)" stroke="rgb(21,171,143)" stroke-width="1" opacity="0.996078431372549" d="M 230.5 11 L 247 11.5 L 230.5 12 L 230.5 11 Z "></path><path fill="rgb(21,171,143)" stroke="rgb(21,171,143)" stroke-width="1" opacity="0.996078431372549" d="M 249.5 12 L 267 12.5 L 249.5 13 L 249.5 12 Z "></path><path fill="rgb(21,171,143)" stroke="rgb(21,171,143)" stroke-width="1" opacity="0.996078431372549" d="M 269.5 13 L 287 13.5 L 269.5 14 L 269.5 13 Z "></path><path fill="rgb(21,171,143)" stroke="rgb(21,171,143)" stroke-width="1" opacity="0.996078431372549" d="M 289.5 14 L 302 14.5 L 289.5 15 L 289.5 14 Z "></path><path fill="rgb(21,171,143)" stroke="rgb(21,171,143)" stroke-width="1" opacity="0.996078431372549" d="M 303.5 15 Q 316.1 17.4 322 26.5 L 327 37.5 L 327 42.5 L 326 42.5 L 325 34.5 L 316.5 22 Q 312.1 16.9 303.5 16 L 303.5 15 Z "></path><path fill="rgb(21,171,143)" stroke="rgb(21,171,143)" stroke-width="1" opacity="0.996078431372549" d="M 0.5 141 Q 1.5 154.5 9.5 161 Q 15.5 167 25.5 169 L 301.5 169 Q 312.7 166.7 319 159.5 Q 325.7 153.2 326.5 141 L 327 146.5 Q 324 158 315.5 164 L 301.5 170 L 25.5 170 Q 11.9 167.1 5 157.5 L 0 146.5 L 0.5 141 Z "></path><path fill="rgb(21,171,144)" stroke="rgb(21,171,144)" stroke-width="1" opacity="1" d="M 28.5 1 L 33.5 2 L 52.5 2 L 53.5 3 L 71.5 3 L 72.5 4 L 91.5 4 L 92.5 5 L 111.5 5 L 112.5 6 L 130.5 6 L 131.5 7 L 150.5 7 L 151.5 8 L 170.5 8 L 171.5 9 L 189.5 9 L 190.5 10 L 209.5 10 L 210.5 11 L 229.5 11 L 230.5 12 L 248.5 12 L 249.5 13 L 302.5 15 Q 313.8 17.8 320 25.5 L 325 34.5 L 327 43.5 L 327 140.5 L 325 149.5 L 317.5 161 Q 311.5 167 301.5 169 L 25.5 169 Q 14.3 166.7 8 159.5 L 2 149.5 L 0 140.5 L 0 29.5 L 4 16.5 L 12.5 7 L 19.5 3 L 28.5 1 Z "></path></svg>